<?xml version="1.0" standalone="no"?>
<!DOCTYPE svg PUBLIC "-//W3C//DTD SVG 20010904//EN"
 "http://www.w3.org/TR/2001/REC-SVG-20010904/DTD/svg10.dtd">
<svg version="1.0" xmlns="http://www.w3.org/2000/svg"
 width="512.000000pt" height="512.000000pt" viewBox="0 0 512.000000 512.000000"
 preserveAspectRatio="xMidYMid meet">

<g transform="translate(0.000000,512.000000) scale(0.100000,-0.100000)"
fill="#000000" stroke="none">
<path d="M2010 4600 c-322 -186 -595 -348 -607 -360 l-23 -22 0 -708 c0 -659
1 -709 18 -729 19 -23 1184 -698 1221 -708 14 -3 40 2 65 14 103 51 1173 676
1189 694 16 20 17 69 17 724 0 689 0 703 -20 728 -16 20 -406 257 -423 257 -3
0 -285 -162 -628 -360 l-624 -360 -5 -273 c-5 -252 -6 -272 -23 -275 -16 -3
-194 92 -309 165 l-38 23 0 283 0 282 617 355 c338 195 622 360 629 365 10 7
-39 40 -191 128 -165 94 -212 117 -242 116 -31 0 -147 -63 -623 -339z"/>
<path d="M865 3549 c-192 -110 -362 -214 -377 -230 l-28 -29 0 -704 c0 -656 1
-705 18 -725 9 -12 283 -175 607 -363 504 -292 596 -341 630 -342 32 0 65 15
158 69 l117 69 0 475 0 476 -322 185 c-177 102 -339 200 -360 218 l-38 34 -2
-189 c-3 -182 -4 -188 -24 -191 -32 -5 -333 174 -339 201 -3 12 -4 141 -3 287
l3 265 148 86 c82 47 153 91 158 96 6 6 8 111 7 261 l-3 252 -350 -201z"/>
<path d="M3585 2231 l-620 -358 -5 -268 c-4 -228 -7 -269 -21 -278 -12 -7 -53
12 -175 83 -87 51 -162 98 -166 104 -4 6 -8 100 -8 209 0 184 -1 197 -18 197
-10 0 -108 51 -218 114 l-199 115 -3 -612 c-1 -407 1 -620 8 -637 6 -14 18
-30 28 -36 9 -6 279 -162 600 -347 465 -269 589 -337 618 -337 28 0 152 68
617 336 320 184 594 348 610 365 l27 29 0 704 c0 656 -1 705 -17 725 -19 21
-410 251 -428 251 -5 0 -289 -162 -630 -359z"/>
</g>
</svg>
